<svg id="Слой_1" data-name="Слой 1" xmlns="http://www.w3.org/2000/svg" viewBox="0 0 144 144"><defs><style>.cls-1{fill:#d07cc6;}.cls-2{fill:#ff5f4e;}</style></defs><path class="cls-1" d="M143.73,31.44a38.1,38.1,0,0,0-4.23-14A32.32,32.32,0,0,0,129.39,6.22,30.88,30.88,0,0,0,115,.71a32.28,32.28,0,0,0-15,2.17c-9,3.56-15.39,9.51-21,15.55a97.36,97.36,0,0,0-9,11.8c-.53-.66-1-1.34-1.58-2A81.67,81.67,0,0,0,60,19.53C53.81,14.2,46.88,9.17,37.42,6.65A28.4,28.4,0,0,0,21.5,7,28.24,28.24,0,0,0,8.34,16.57C2.14,24.79.19,34.33,0,43c-.11,17.6,6.37,33.34,15.16,46.8A114.54,114.54,0,0,0,49,123a6.81,6.81,0,0,0,8-11l0,0A120.92,120.92,0,0,1,29.51,80.81C22.68,69.09,18,55.78,18.32,43.38c.1-6.12,1.68-11.85,4.57-15.59C26,24,28.2,23.13,33.49,23.87c5.12,1,11.1,4.19,16.58,8.05A95.63,95.63,0,0,1,65.35,45.26h0a6.13,6.13,0,0,0,1.83,1.9,6,6,0,0,0,8.28-1.71l.49-.74A100.21,100.21,0,0,1,89.49,28.53c5-4.87,10.68-8.92,16.1-10.84s9.93-1.28,14.3,2,6.69,7.57,7.36,13.61-.4,12.81-2.34,19.51a130,130,0,0,1-7.67,20,180,180,0,0,1-23.37,36.8l-.18.22a7.25,7.25,0,0,0,10.84,9.63c11.31-12,20-25.17,27.28-39.52a127.13,127.13,0,0,0,9.07-22.66C143.13,49.31,144.64,40.73,143.73,31.44Z"/><path class="cls-2" d="M78,143.43a6.8,6.8,0,0,1-3.85-1.19L62.69,134.5a6.86,6.86,0,0,1,7.71-11.36l6.93,4.7,5.07-4.62a6.87,6.87,0,0,1,9.25,10.15l-9.07,8.27A6.89,6.89,0,0,1,78,143.43Z"/></svg>