<svg width="320" height="253" viewBox="0 0 320 253" fill="none" xmlns="http://www.w3.org/2000/svg"><g filter="url(#filter0_f)"><path d="M79.488 149.657c-19.753 1.445-30.196 9.94-30.196 19.044 0 11.086 1.439 19.612 14.532 23.152 10.123 2.725 77.588-1.394 109.13-1.28 42.464.155 71.061 1.837 79.706 2.209 24.708 1.084 30.156-39.11-1.732-42.186-29.29-2.838-142.282-3.055-171.44-.939z" fill="#CF9898" fill-opacity=".39"/></g><g filter="url(#filter1_f)"><path d="M64.952 158.943c-23.268.277-35.57 1.903-35.57 3.647 0 2.123 1.695 3.755 17.119 4.433 11.924.522 91.396-.267 128.55-.245 50.021.03 83.708.352 93.892.423 29.105.208 35.522-7.489-2.04-8.078-34.503-.544-167.605-.585-201.95-.18z" fill="#CF9898" fill-opacity=".53"/></g><path d="M13.5 77.5c0-21.132.91-36.451 7.434-47.467 6.43-10.858 18.545-17.843 41.948-21.58 23.458-3.747 67.323-6.441 110.91-6.032 21.784.204 43.467 1.184 62.467 3.19 19.03 2.008 35.259 5.034 46.197 9.287 8.699 3.382 14.665 10.42 18.645 19.63 3.989 9.227 5.933 20.53 6.616 32.187 1.368 23.31-2.322 47.656-4.323 58.74-2.232 12.367-7.214 20.839-14.347 26.677-7.167 5.867-16.649 9.193-28.082 10.98-11.434 1.787-24.687 2.017-39.302 1.792-5.456-.085-11.112-.233-16.927-.385-9.699-.254-19.84-.519-30.236-.519-18.152 0-33.627.672-47.73 1.284-7.848.341-15.271.664-22.494.841-20.203.498-39.048-.122-61.838-4.568-14.272-6.01-21.542-18.99-25.228-34.629-3.703-15.709-3.71-33.777-3.71-49.428z" fill="#fff"/><path d="M13.5 77.5c0-21.132.91-36.451 7.434-47.467 6.43-10.858 18.545-17.843 41.948-21.58 23.458-3.747 67.323-6.441 110.91-6.032 21.784.204 43.467 1.184 62.467 3.19 19.03 2.008 35.259 5.034 46.197 9.287 8.699 3.382 14.665 10.42 18.645 19.63 3.989 9.227 5.933 20.53 6.616 32.187 1.368 23.31-2.322 47.656-4.323 58.74-2.232 12.367-7.214 20.839-14.347 26.677-7.167 5.867-16.649 9.193-28.082 10.98-11.434 1.787-24.687 2.017-39.302 1.792-5.456-.085-11.112-.233-16.927-.385-9.699-.254-19.84-.519-30.236-.519-18.152 0-33.627.672-47.73 1.284-7.848.341-15.271.664-22.494.841-20.203.498-39.048-.122-61.838-4.568-14.272-6.01-21.542-18.99-25.228-34.629-3.703-15.709-3.71-33.777-3.71-49.428z" fill="url(#paint0_linear)"/><path d="M13.5 77.5c0-21.132.91-36.451 7.434-47.467 6.43-10.858 18.545-17.843 41.948-21.58 23.458-3.747 67.323-6.441 110.91-6.032 21.784.204 43.467 1.184 62.467 3.19 19.03 2.008 35.259 5.034 46.197 9.287 8.699 3.382 14.665 10.42 18.645 19.63 3.989 9.227 5.933 20.53 6.616 32.187 1.368 23.31-2.322 47.656-4.323 58.74-2.232 12.367-7.214 20.839-14.347 26.677-7.167 5.867-16.649 9.193-28.082 10.98-11.434 1.787-24.687 2.017-39.302 1.792-5.456-.085-11.112-.233-16.927-.385-9.699-.254-19.84-.519-30.236-.519-18.152 0-33.627.672-47.73 1.284-7.848.341-15.271.664-22.494.841-20.203.498-39.048-.122-61.838-4.568-14.272-6.01-21.542-18.99-25.228-34.629-3.703-15.709-3.71-33.777-3.71-49.428z" stroke="url(#paint1_linear)" stroke-width="3"/><defs><linearGradient id="paint0_linear" x1="175.114" y1="150.507" x2="169.096" y2="8.052" gradientUnits="userSpaceOnUse"><stop stop-color="#FFF6EF"/><stop offset="1" stop-color="#fff" stop-opacity="0"/></linearGradient><linearGradient id="paint1_linear" x1="160.998" y1="161.884" x2="160.998" y2="41.92" gradientUnits="userSpaceOnUse"><stop stop-color="#EDD3D0" stop-opacity=".71"/><stop offset="1" stop-color="#fff" stop-opacity="0"/></linearGradient><filter id="filter0_f" x="-10.708" y="88.243" width="343.748" height="164.56" filterUnits="userSpaceOnUse" color-interpolation-filters="sRGB"><feFlood flood-opacity="0" result="BackgroundImageFix"/><feBlend in="SourceGraphic" in2="BackgroundImageFix" result="shape"/><feGaussianBlur stdDeviation="30" result="effect1_foregroundBlur"/></filter><filter id="filter1_f" x="9.382" y="138.672" width="303.568" height="48.533" filterUnits="userSpaceOnUse" color-interpolation-filters="sRGB"><feFlood flood-opacity="0" result="BackgroundImageFix"/><feBlend in="SourceGraphic" in2="BackgroundImageFix" result="shape"/><feGaussianBlur stdDeviation="10" result="effect1_foregroundBlur"/></filter></defs></svg>