<svg width="111" height="110" viewBox="0 0 111 110" fill="none" xmlns="http://www.w3.org/2000/svg"><path d="M59.73 48.117a13.849 13.849 0 0111.703-2.003 10.71 10.71 0 017.6 13.389c-1.758 6.618-9.637 12.901-26.51 15.703-13.221-10.818-16.969-20.178-15.21-26.796a10.74 10.74 0 0113.261-7.853 13.86 13.86 0 019.156 7.56zM7.989 37.149a144.782 144.782 0 0015.226 5.87c1.573.519 4.126 1.832 5.645.836a1.72 1.72 0 00.744-2.243c-.732-1.673-3.258-1.917-4.828-2.426-4.756-1.54-10.171-3.522-15.475-5.827a2.005 2.005 0 10-1.312 3.79zM84.214 75.296c2.287.781 4.589 1.514 6.885 2.26 2.296.746 4.677 1.928 6.973 1.839a1.74 1.74 0 001.086-3.152c-1.869-1.474-4.532-1.872-6.738-2.575-2.207-.702-4.598-1.479-6.91-2.177-2.31-.699-3.773 2.963-1.321 3.793l.025.012zM19.438 74.071c4.455-3.905 8.446-4.258 11.723-5.244a1.62 1.62 0 00-.198-3.198c-5.053-.805-10.54 2.185-14.181 5.442-1.918 1.714.713 4.702 2.656 3zM41.977 94.804a17.782 17.782 0 013.386-6.53c.98-1.182 4.95-4.065 2.473-5.647-2.477-1.583-5.047 2.237-6.223 3.803a20.998 20.998 0 00-3.448 7.059c-.678 2.494 3.106 3.82 3.812 1.315zM66.152 86.688c.976 1.336 1.974 2.674 2.924 4.03.95 1.354 1.753 3.077 3.544 3.277a1.77 1.77 0 001.862-1.6c.303-1.615-1.43-3.188-2.327-4.414-.895-1.226-1.97-2.665-2.946-4a2.06 2.06 0 00-2.882-.176 2.09 2.09 0 00-.175 2.883zM48.525 28.901c-1.055-13.317-.948-13.343-1.572-14.641a1.78 1.78 0 00-3.237.21c-.478 1.444-.385 1.19.79 15.227a2.09 2.09 0 002.426 1.621 2.109 2.109 0 001.63-2.43l-.037.013zM69.507 35.59a30.532 30.532 0 003.612-5.467c.93-1.82 2.61-4.477 1.262-6.405a1.52 1.52 0 00-1.481-.496c-1.99.576-2.505 3.3-3.38 4.974a35.64 35.64 0 01-3.334 5.17 2 2 0 103.32 2.224zM98.445 47.142a1.78 1.78 0 00-.479-2.415c-1.385-1.143-3.955-.283-5.537.068a35.55 35.55 0 00-5.39 1.7 1.999 1.999 0 00-.9 2.708 2.08 2.08 0 002.698.904c6.732-2.413 8.04-1.032 9.608-2.965z" fill="#FF8D7F"/></svg>