<svg width="298" height="140" viewBox="0 0 298 140" fill="none" xmlns="http://www.w3.org/2000/svg"><path d="M51.044 1.556C21.413 2.83 4.694 22.519 1.724 35.87c-4.98 22.298 0 59.781 25.906 63.248 15.802 1.993 61.037 4.564 108.224 4.723 63.527.239 96.347 0 112.548-3.328a45.832 45.832 0 0035.709-38.818c3.069-26.024-11.956-56.313-38.32-58.724C203.008-.975 98.471-.497 51.044 1.556z" fill="#fff"/><path d="M51.044 1.556C21.413 2.83 4.694 22.519 1.724 35.87c-4.98 22.298 0 59.781 25.906 63.248 15.802 1.993 61.037 4.564 108.224 4.723 63.527.239 96.347 0 112.548-3.328a45.832 45.832 0 0035.709-38.818c3.069-26.024-11.956-56.313-38.32-58.724C203.008-.975 98.471-.497 51.044 1.556z" fill="url(#paint0_linear)"/><path d="M298 107.746c0 8.25-3.328 15.782-18.692 14.945a15.241 15.241 0 01-14.945-14.945 14.945 14.945 0 0114.945-14.945c15.165 0 18.692 6.695 18.692 14.945z" fill="#fff"/><path d="M298 107.746c0 8.25-3.328 15.782-18.692 14.945a15.241 15.241 0 01-14.945-14.945 14.945 14.945 0 0114.945-14.945c15.165 0 18.692 6.695 18.692 14.945z" fill="url(#paint1_linear)"/><path d="M278.75 133.81c0 3.009-1.195 5.759-6.795 5.46a5.575 5.575 0 01-5.44-5.46c0-1.442.573-2.826 1.594-3.846a5.435 5.435 0 013.846-1.594c5.52 0 6.795 2.431 6.795 5.44z" fill="#fff"/><path d="M278.75 133.81c0 3.009-1.195 5.759-6.795 5.46a5.575 5.575 0 01-5.44-5.46c0-1.442.573-2.826 1.594-3.846a5.435 5.435 0 013.846-1.594c5.52 0 6.795 2.431 6.795 5.44z" fill="url(#paint2_linear)"/><defs><linearGradient id="paint0_linear" x1="149" y1="151" x2="149" y2="13" gradientUnits="userSpaceOnUse"><stop stop-color="#D07CC6"/><stop offset="1" stop-color="#fff" stop-opacity="0"/></linearGradient><linearGradient id="paint1_linear" x1="149" y1="151" x2="149" y2="13" gradientUnits="userSpaceOnUse"><stop stop-color="#D07CC6"/><stop offset="1" stop-color="#fff" stop-opacity="0"/></linearGradient><linearGradient id="paint2_linear" x1="149" y1="151" x2="149" y2="13" gradientUnits="userSpaceOnUse"><stop stop-color="#D07CC6"/><stop offset="1" stop-color="#fff" stop-opacity="0"/></linearGradient></defs></svg>