<svg width="1053" height="184" viewBox="0 0 1053 184" fill="none" xmlns="http://www.w3.org/2000/svg"><g filter="url(#filter0_f)"><path d="M213.201 62.865C137.43 64.91 97.373 76.931 97.373 89.815c0 15.687 5.518 27.752 55.742 32.762 38.831 3.856 297.617-1.972 418.606-1.811 162.884.219 272.581 2.6 305.741 3.125 94.777 1.534 115.674-55.344-6.642-59.697-112.354-4.016-545.777-4.323-657.619-1.329z" fill="#CF9898" fill-opacity=".39"/></g><g filter="url(#filter1_f)"><path d="M157.128 76.05c-89.332.415-136.558 2.857-136.558 5.474 0 3.186 6.506 5.637 65.72 6.655 45.779.783 350.881-.4 493.523-.368 192.036.044 321.366.528 360.46.635 111.737.311 136.377-11.242-7.831-12.126-132.462-.816-643.455-.878-775.314-.27z" fill="#CF9898" fill-opacity=".53"/></g><defs><filter id="filter0_f" x="37.373" y=".865" width="978.266" height="183.057" filterUnits="userSpaceOnUse" color-interpolation-filters="sRGB"><feFlood flood-opacity="0" result="BackgroundImageFix"/><feBlend in="SourceGraphic" in2="BackgroundImageFix" result="shape"/><feGaussianBlur stdDeviation="30" result="effect1_foregroundBlur"/></filter><filter id="filter1_f" x=".57" y="55.644" width="1051.87" height="52.809" filterUnits="userSpaceOnUse" color-interpolation-filters="sRGB"><feFlood flood-opacity="0" result="BackgroundImageFix"/><feBlend in="SourceGraphic" in2="BackgroundImageFix" result="shape"/><feGaussianBlur stdDeviation="10" result="effect1_foregroundBlur"/></filter></defs></svg>