<svg width="49" height="41" viewBox="0 0 49 41" fill="none" xmlns="http://www.w3.org/2000/svg"><path d="M5.319 8.046c-8.113 8.16-4.225 22.59 4.594 28.489 9.745 6.502 23.453 4.954 31.813-3.102 9.063-8.719 9.218-21.13.648-28.954-8.365-7.566-20.185-4.023-23.782 5.963-2.573 7.171 1.02 13.34 4.886 13.79 3.007.355 5.276-2.865 3.206-5.326a3.23 3.23 0 00-3.404-.863c-1.517-2.546-.53-8.117 4.177-11.316 6-4.086 13.182.926 15.509 6.789 2.962 7.441-1.562 15.123-7.862 19.163-6.615 4.234-15.923 4.4-22.525.035A16.56 16.56 0 017.913 10a1.624 1.624 0 00-2.594-1.954z" fill="#70B2F5"/></svg>