<svg width="89" height="89" viewBox="0 0 89 89" fill="none" xmlns="http://www.w3.org/2000/svg"><path d="M59.894 54.31a13.81 13.81 0 10-19.778-19.276 13.81 13.81 0 0019.778 19.277zM16.81 69.012c3.214-2.574 6.354-5.481 9.89-7.555 3.04-1.78 6.345 2.335 3.841 4.889-3.06 3.13-6.951 5.638-10.412 8.319-1.396 1.084-3.668.226-4.481-1.162-1.002-1.697-.237-3.386 1.162-4.49zM9.8 40.696c5.238.885 10.438.896 15.715 1.22 4.13.223 4.086 5.792.113 6.32-5.72.733-11.774-.026-17.426-.98a3.359 3.359 0 01.26-6.63 3.36 3.36 0 011.343.111l-.005-.041zM32.355 27.384a2.36 2.36 0 01-1.59 2.804c-2.991 1.151-5.9-1.484-7.978-3.354a29.843 29.843 0 01-5.502-6.78c-2.213-3.689 3.542-7.093 5.765-3.394 4.344 7.252 8.569 6.943 9.305 10.724zM53.025 9.703c-.722 7.079.499 10.716-1.966 12.851a2.779 2.779 0 01-4.3-.52c-1.335-1.764-.757-4.268-.707-6.331.05-2.064.106-3.945.315-5.915a3.43 3.43 0 013.276-3.373c1.64-.03 3.563 1.516 3.383 3.278l-.001.01zM65.652 19.01c3.298-1.885 4.332-2.698 6.673-2.891 2.043-.165 3.775 2.505 2.567 4.253-1.41 2.042-2.363 2.422-5.846 4.402a3.344 3.344 0 11-3.394-5.764zM73.016 36.508c7.27.366 8.963.182 10.547 1.83.933.972 1.253 2.916.068 3.869-2.212 1.776-3.935 1.32-10.514.85a3.35 3.35 0 01-3.32-3.228 3.29 3.29 0 013.22-3.32zM77.798 66.932c.962 2.4-2.28 4.818-4.374 3.42-2.094-1.398-2.46-2.168-9.897-11.182a3.44 3.44 0 01-.076-4.728c1.178-1.186 3.578-1.512 4.728-.076 7.731 9.43 8.658 10.157 9.619 12.566zM51.892 69.7c.893 8.721 2.289 8.495 1.788 12.949-.222 1.989-3.443 2.905-4.697 1.353-1.645-2-1.89-2.763-2.726-6.911a73.277 73.277 0 01-1.097-7.287 3.4 3.4 0 013.315-3.428 3.43 3.43 0 013.417 3.323z" fill="#FFCD7B"/></svg>