<svg width="27" height="27" viewBox="0 0 27 27" fill="none" xmlns="http://www.w3.org/2000/svg"><path d="M22.909 4.078A13.035 13.035 0 0013.67.25C6.445.25.59 6.083.59 13.284c0 2.278.64 4.557 1.738 6.471L.5 26.5l6.951-1.823c1.921 1.003 4.025 1.55 6.22 1.55 7.225 0 13.079-5.834 13.079-13.034-.091-3.373-1.372-6.654-3.841-9.115zm-2.927 13.854c-.275.73-1.555 1.459-2.195 1.55a5.13 5.13 0 01-2.013-.091c-.457-.183-1.097-.365-1.829-.73-3.293-1.367-5.396-4.648-5.58-4.921-.182-.183-1.371-1.732-1.371-3.373 0-1.64.823-2.37 1.097-2.734.275-.365.64-.365.915-.365h.64c.183 0 .458-.09.732.547.274.638.915 2.279 1.006 2.37a.58.58 0 010 .547c-.091.182-.183.364-.366.547-.183.182-.366.455-.457.546-.183.183-.366.365-.183.639.183.364.823 1.367 1.83 2.278 1.28 1.094 2.286 1.459 2.652 1.64.366.183.549.092.732-.09.182-.183.823-.912 1.006-1.276.183-.365.457-.274.731-.183.275.091 1.921.912 2.195 1.094.366.182.55.274.64.365.092.273.092.911-.182 1.64z" fill="#fff"/></svg>